HIERARCHY
ROOT hip
{
	OFFSET	0.00  0.00  0.00 
	CHANNELS 6 Xposition Yposition Zposition Xrotation Zrotation Yrotation
	JOINT abdomen
	{
		OFFSET	0.000000 0.000000 0.000000
		CHANNELS 3 Xrotation Zrotation Yrotation
		JOINT chest
		{
			OFFSET	0.000000 5.018152 -1.882228
			CHANNELS 3 Xrotation Zrotation Yrotation
			JOINT neckDummy
			{
				OFFSET	0.000000 8.316447 0.784897
				CHANNELS 3 Xrotation Yrotation Zrotation
				JOINT neck
				{
					OFFSET	0.000000 2.280413 -0.392801
					CHANNELS 3 Xrotation Zrotation Yrotation
					JOINT head
					{
						OFFSET	0.000000 3.496879 0.529469
						CHANNELS 3 Xrotation Zrotation Yrotation
						JOINT figureHair
						{
							OFFSET	0.000000 4.699570 0.720622
							CHANNELS 3 Zrotation Yrotation Xrotation
							End Site
							{
								OFFSET 0.000000 -6.419331 0.000000
							}
						}
					}
				}
			}
			JOINT lCollar
			{
				OFFSET	0.599237 8.316447 0.784897
				CHANNELS 3 Yrotation Zrotation Xrotation
				JOINT lShldr
				{
					OFFSET	6.421198 0.010146 -0.332128
					CHANNELS 3 Zrotation Yrotation Xrotation
					JOINT lForeArm
					{
						OFFSET	10.552783 0.025574 0.125508
						CHANNELS 3 Yrotation Zrotation Xrotation
						JOINT lHand
						{
							OFFSET	11.035963 0.319619 0.041520
							CHANNELS 3 Zrotation Yrotation Xrotation
							End Site
							{
								OFFSET 10.353753 0.000000 0.000000
							}
						}
					}
				}
			}
			JOINT rCollar
			{
				OFFSET	-0.599237 8.316447 0.784897
				CHANNELS 3 Yrotation Zrotation Xrotation
				JOINT rShldr
				{
					OFFSET	-6.421198 0.010146 -0.332128
					CHANNELS 3 Zrotation Yrotation Xrotation
					JOINT rForeArm
					{
						OFFSET	-10.552783 0.025574 0.125508
						CHANNELS 3 Yrotation Zrotation Xrotation
						JOINT rHand
						{
							OFFSET	-11.035963 0.319619 0.041520
							CHANNELS 3 Zrotation Yrotation Xrotation
							End Site
							{
								OFFSET -10.353753 0.000000 0.000000
							}
						}
					}
				}
			}
		}
	}
	JOINT lThigh
	{
		OFFSET	4.500466 -6.400484 -1.832696
		CHANNELS 3 Xrotation Zrotation Yrotation
		JOINT lShin
		{
			OFFSET	-1.359117 -18.918689 1.179887
			CHANNELS 3 Xrotation Zrotation Yrotation
			JOINT lFoot
			{
				OFFSET	-0.652380 -17.215186 -0.312137
				CHANNELS 3 Xrotation Yrotation Zrotation
				End Site
				{
					OFFSET 0.000000 0.000000 10.353752
				}
			}
		}
	}
	JOINT rThigh
	{
		OFFSET	-4.500466 -6.400484 -1.832696
		CHANNELS 3 Xrotation Zrotation Yrotation
		JOINT rShin
		{
			OFFSET	1.359117 -18.918689 1.179887
			CHANNELS 3 Xrotation Zrotation Yrotation
			JOINT rFoot
			{
				OFFSET	0.652380 -17.215186 -0.312137
				CHANNELS 3 Xrotation Yrotation Zrotation
				End Site
				{
					OFFSET 0.000000 0.000000 10.353752
				}
			}
		}
	}
}
MOTION
Frames:     18
Frame Time: 0.333333
0.000000 47.872807 0.304512 0.476668 0.213055 -0.009744 6.875000 0.009766 -0.039061 -7.070310 0.000000 -0.039063 0.000000 0.000000 0.000000 0.259108 0.045859 -0.024898 0.612307 0.122753 0.000379 0.000000 0.000000 0.000000 1.954460 -5.692450 -0.096589 -70.020897 16.969801 -25.996099 -87.687202 -12.419600 -74.120399 5.082580 -0.584430 -40.828701 -2.031800 5.678400 -0.068100 70.113503 -9.399120 -29.129400 78.193497 15.610000 -63.361000 -3.389050 3.127830 -37.803200 -95.278099 22.677500 38.867802 137.279007 -7.551200 5.821800 -4.443700 -64.733200 -18.021900 -90.289101 -15.258800 -43.202999 121.151001 20.916901 30.273300 1.131700 13.910200 -10.519000 
0.000000 47.162777 0.217690 0.476668 0.213055 -0.009744 6.250000 0.006510 -0.026041 -7.046874 0.000000 -0.026042 0.000000 0.000000 0.000000 0.172739 0.030573 -0.016599 0.408205 0.081835 0.000252 0.000000 0.000000 0.000000 1.976947 -5.691737 -0.085510 -70.047501 16.972801 -26.000200 -87.296669 -12.380966 -74.041954 5.378217 -0.447324 -40.827232 -2.031800 5.678400 -0.068100 70.150665 -9.359007 -29.094900 77.634201 15.841233 -63.191433 -4.096293 2.199343 -37.812767 -95.278099 22.677500 38.867802 137.279007 -7.551200 5.821800 -4.443700 -64.733200 -18.021900 -90.289101 -15.258800 -43.202999 121.151001 20.916901 30.273300 1.131700 13.910200 -10.519000 
0.000000 46.339203 0.130868 0.476668 0.213055 -0.009744 5.625000 0.003255 -0.013020 -7.023437 0.000000 -0.013021 0.000000 0.000000 0.000000 0.086369 0.015286 -0.008299 0.204102 0.040918 0.000126 0.000000 0.000000 0.000000 1.999433 -5.691023 -0.074430 -70.074097 16.975800 -26.004299 -86.906136 -12.342333 -73.908836 5.673853 -0.310218 -40.825768 -2.031800 5.678400 -0.068100 70.187836 -9.318893 -29.060400 77.074905 16.072466 -63.021866 -4.803536 1.270856 -37.822334 -95.278099 22.677500 38.867802 137.279007 -7.551200 5.821800 -4.443700 -64.733200 -18.021900 -90.289101 -15.258800 -43.202999 121.151001 20.916901 30.273300 1.131700 13.910200 -10.519000 
0.000000 45.798485 0.044046 0.476668 0.213055 -0.009744 5.000000 0.000000 0.000000 -7.000000 0.000000 0.000000 0.000000 0.000000 0.000000 0.000000 0.000000 0.000000 0.000000 0.000000 0.000000 0.000000 0.000000 0.000000 2.021920 -5.690310 -0.063351 -70.100700 16.978800 -26.008400 -86.515602 -12.303700 -73.852303 5.969490 -0.173112 -40.824299 -2.031800 5.678400 -0.068100 70.224998 -9.278780 -29.025900 76.515602 16.303699 -62.852299 -5.510780 0.342369 -37.831902 -95.278099 22.677500 38.867802 137.279007 -7.551200 5.821800 -4.443700 -64.733200 -18.021900 -90.289101 -15.258800 -43.202999 121.151001 20.916901 30.273300 1.131700 13.910200 -10.519000 
0.000000 45.838776 0.096139 0.476668 0.213055 -0.009744 5.375000 0.001953 -0.007812 -7.014062 0.000000 -0.007813 0.000000 0.000000 0.000000 0.051822 0.009172 -0.004980 0.122461 0.024551 0.000076 0.000000 0.000000 0.000000 2.008428 -5.690738 -0.069999 -70.084740 16.976999 -26.005939 -86.749924 -12.326880 -73.905922 5.792108 -0.255376 -40.825180 -2.031800 5.678400 -0.068100 70.202698 -9.302848 -29.046600 76.851181 16.164959 -62.954041 -5.086434 0.899461 -37.826160 -95.278099 22.677500 38.867802 137.279007 -7.551200 5.821800 -4.443700 -64.733200 -18.021900 -90.289101 -15.258800 -43.202999 121.151001 20.916901 30.273300 1.131700 13.910200 -10.519000 
0.000000 46.326149 0.148232 0.476668 0.213055 -0.009744 5.750000 0.003906 -0.015624 -7.028124 0.000000 -0.015625 0.000000 0.000000 0.000000 0.103643 0.018344 -0.009959 0.244923 0.049101 0.000151 0.000000 0.000000 0.000000 1.994936 -5.691166 -0.076646 -70.068779 16.975201 -26.003479 -86.984245 -12.350060 -73.959541 5.614726 -0.337639 -40.826061 -2.031800 5.678400 -0.068100 70.180397 -9.326916 -29.067301 77.186760 16.026218 -63.055779 -4.662088 1.456553 -37.820419 -95.278099 22.677500 38.867802 137.279007 -7.551200 5.821800 -4.443700 -64.733200 -18.021900 -90.289101 -15.258800 -43.202999 121.151001 20.916901 30.273300 1.131700 13.910200 -10.519000 
0.000000 47.018661 0.200326 0.476668 0.213055 -0.009744 6.125000 0.005859 -0.023436 -7.042186 0.000000 -0.023438 0.000000 0.000000 0.000000 0.155465 0.027516 -0.014939 0.367384 0.073652 0.000227 0.000000 0.000000 0.000000 1.981444 -5.691594 -0.083294 -70.052818 16.973400 -26.001019 -87.218567 -12.373240 -74.013161 5.437344 -0.419903 -40.826942 -2.031800 5.678400 -0.068100 70.158096 -9.350984 -29.088001 77.522339 15.887479 -63.157520 -4.237742 2.013646 -37.814678 -95.278099 22.677500 38.867802 137.279007 -7.551200 5.821800 -4.443700 -64.733200 -18.021900 -90.289101 -15.258800 -43.202999 121.151001 20.916901 30.273300 1.131700 13.910200 -10.519000 
0.000000 47.674370 0.252419 0.476668 0.213055 -0.009744 6.500000 0.007813 -0.031249 -7.056248 0.000000 -0.031250 0.000000 0.000000 0.000000 0.207286 0.036688 -0.019918 0.489846 0.098202 0.000303 0.000000 0.000000 0.000000 1.967952 -5.692022 -0.089941 -70.036858 16.971600 -25.998558 -87.452881 -12.396420 -74.066780 5.259962 -0.502166 -40.827820 -2.031800 5.678400 -0.068100 70.135803 -9.375051 -29.108700 77.857918 15.748739 -63.259262 -3.813396 2.570738 -37.808937 -95.278099 22.677500 38.867802 137.279007 -7.551200 5.821800 -4.443700 -64.733200 -18.021900 -90.289101 -15.258800 -43.202999 121.151001 20.916901 30.273300 1.131700 13.910200 -10.519000 
0.000000 48.051327 0.304512 0.476668 0.213055 -0.009744 6.875000 0.009766 -0.039061 -7.070310 0.000000 -0.039063 0.000000 0.000000 0.000000 0.259108 0.045859 -0.024898 0.612307 0.122753 0.000379 0.000000 0.000000 0.000000 1.954460 -5.692450 -0.096589 -70.020897 16.969801 -25.996099 -87.687202 -12.419600 -74.120399 5.082580 -0.584430 -40.828701 -2.031800 5.678400 -0.068100 70.113503 -9.399120 -29.129400 78.193497 15.610000 -63.361000 -3.389050 3.127830 -37.803200 -95.278099 22.677500 38.867802 137.279007 -7.551200 5.821800 -4.443700 -64.733200 -18.021900 -90.289101 -15.258800 -43.202999 121.151001 20.916901 30.273300 1.131700 13.910200 -10.519000 
0.000000 47.979820 0.239396 0.476668 0.213055 -0.009744 6.406250 0.007324 -0.029296 -7.052732 0.000000 -0.029297 0.000000 0.000000 0.000000 0.194331 0.034395 -0.018673 0.459230 0.092065 0.000284 0.000000 0.000000 0.000000 1.971325 -5.691915 -0.088280 -70.040848 16.972050 -25.999174 -87.394302 -12.390625 -74.053375 5.304307 -0.481600 -40.827599 -2.031800 5.678400 -0.068100 70.141373 -9.369036 -29.103525 77.774025 15.783424 -63.233826 -3.919482 2.431465 -37.810375 -95.278099 22.677500 38.867802 137.279007 -7.551200 5.821800 -4.443700 -64.733200 -18.021900 -90.289101 -15.258800 -43.202999 121.151001 20.916901 30.273300 1.131700 13.910200 -10.519000 
0.000000 47.579063 0.174279 0.476668 0.213055 -0.009744 5.937500 0.004883 -0.019530 -7.035155 0.000000 -0.019531 0.000000 0.000000 0.000000 0.129554 0.022930 -0.012449 0.306154 0.061377 0.000189 0.000000 0.000000 0.000000 1.988190 -5.691380 -0.079970 -70.060799 16.974300 -26.002249 -87.101402 -12.361650 -73.986351 5.526035 -0.378771 -40.826500 -2.031800 5.678400 -0.068100 70.169250 -9.338950 -29.077650 77.354553 15.956849 -63.106651 -4.449915 1.735099 -37.817551 -95.278099 22.677500 38.867802 137.279007 -7.551200 5.821800 -4.443700 -64.733200 -18.021900 -90.289101 -15.258800 -43.202999 121.151001 20.916901 30.273300 1.131700 13.910200 -10.519000 
0.000000 47.040489 0.109162 0.476668 0.213055 -0.009744 5.468750 0.002441 -0.009765 -7.017577 0.000000 -0.009766 0.000000 0.000000 0.000000 0.064777 0.011465 -0.006224 0.153077 0.030688 0.000095 0.000000 0.000000 0.000000 2.005055 -5.690845 -0.071661 -70.080750 16.976551 -26.005325 -86.808502 -12.332676 -73.919327 5.747763 -0.275941 -40.825401 -2.031800 5.678400 -0.068100 70.197128 -9.308865 -29.051775 76.935074 16.130274 -62.979477 -4.980348 1.038734 -37.824726 -95.278099 22.677500 38.867802 137.279007 -7.551200 5.821800 -4.443700 -64.733200 -18.021900 -90.289101 -15.258800 -43.202999 121.151001 20.916901 30.273300 1.131700 13.910200 -10.519000 
0.000000 46.555542 0.044046 0.476668 0.213055 -0.009744 5.000000 0.000000 0.000000 -7.000000 0.000000 0.000000 0.000000 0.000000 0.000000 0.000000 0.000000 0.000000 0.000000 0.000000 0.000000 0.000000 0.000000 0.000000 2.021920 -5.690310 -0.063351 -70.100700 16.978800 -26.008400 -86.515602 -12.303700 -73.852303 5.969490 -0.173112 -40.824299 -2.031800 5.678400 -0.068100 70.224998 -9.278780 -29.025900 76.515602 16.303699 -62.852299 -5.510780 0.342369 -37.831902 -95.278099 22.677500 38.867802 137.279007 -7.551200 5.821800 -4.443700 -64.733200 -18.021900 -90.289101 -15.258800 -43.202999 121.151001 20.916901 30.273300 1.131700 13.910200 -10.519000 
0.000000 46.274918 0.081255 0.476668 0.213055 -0.009744 5.267857 0.001395 -0.005580 -7.010044 0.000000 -0.005580 0.000000 0.000000 0.000000 0.037015 0.006551 -0.003557 0.087472 0.017536 0.000054 0.000000 0.000000 0.000000 2.012283 -5.690616 -0.068099 -70.089302 16.977514 -26.006643 -86.682976 -12.320257 -73.890602 5.842789 -0.231872 -40.824928 -2.031800 5.678400 -0.068100 70.209068 -9.295972 -29.040686 76.755302 16.204599 -62.924969 -5.207675 0.740292 -37.827801 -95.278099 22.677500 38.867802 137.279007 -7.551200 5.821800 -4.443700 -64.733200 -18.021900 -90.289101 -15.258800 -43.202999 121.151001 20.916901 30.273300 1.131700 13.910200 -10.519000 
0.000000 46.178791 0.118465 0.476668 0.213055 -0.009744 5.535714 0.002790 -0.011160 -7.020088 0.000000 -0.011161 0.000000 0.000000 0.000000 0.074031 0.013103 -0.007114 0.174945 0.035072 0.000108 0.000000 0.000000 0.000000 2.002646 -5.690921 -0.072848 -70.077904 16.976229 -26.004887 -86.850349 -12.336814 -73.928902 5.716087 -0.290631 -40.825558 -2.031800 5.678400 -0.068100 70.193138 -9.313164 -29.055471 76.995003 16.105499 -62.997643 -4.904571 1.138215 -37.823700 -95.278099 22.677500 38.867802 137.279007 -7.551200 5.821800 -4.443700 -64.733200 -18.021900 -90.289101 -15.258800 -43.202999 121.151001 20.916901 30.273300 1.131700 13.910200 -10.519000 
0.000000 46.210945 0.155674 0.476668 0.213055 -0.009744 5.803571 0.004185 -0.016740 -7.030133 0.000000 -0.016741 0.000000 0.000000 0.000000 0.111046 0.019654 -0.010670 0.262417 0.052608 0.000162 0.000000 0.000000 0.000000 1.993009 -5.691227 -0.077596 -70.066505 16.974943 -26.003130 -87.017723 -12.353371 -73.967201 5.589386 -0.349391 -40.826187 -2.031800 5.678400 -0.068100 70.177208 -9.330355 -29.070257 77.234703 16.006399 -63.070313 -4.601467 1.536138 -37.819599 -95.278099 22.677500 38.867802 137.279007 -7.551200 5.821800 -4.443700 -64.733200 -18.021900 -90.289101 -15.258800 -43.202999 121.151001 20.916901 30.273300 1.131700 13.910200 -10.519000 
0.000000 46.323330 0.192884 0.476668 0.213055 -0.009744 6.071428 0.005580 -0.022320 -7.040177 0.000000 -0.022321 0.000000 0.000000 0.000000 0.148062 0.026205 -0.014227 0.349890 0.070145 0.000216 0.000000 0.000000 0.000000 1.983371 -5.691533 -0.082344 -70.055099 16.973658 -26.001373 -87.185089 -12.369928 -74.005501 5.462685 -0.408151 -40.826817 -2.031800 5.678400 -0.068100 70.161285 -9.347546 -29.085043 77.474403 15.907299 -63.142982 -4.298363 1.934061 -37.815498 -95.278099 22.677500 38.867802 137.279007 -7.551200 5.821800 -4.443700 -64.733200 -18.021900 -90.289101 -15.258800 -43.202999 121.151001 20.916901 30.273300 1.131700 13.910200 -10.519000 
0.000000 46.475964 0.230093 0.476668 0.213055 -0.009744 6.339285 0.006975 -0.027901 -7.050221 0.000000 -0.027902 0.000000 0.000000 0.000000 0.185077 0.032757 -0.017784 0.437362 0.087681 0.000270 0.000000 0.000000 0.000000 1.973734 -5.691838 -0.087092 -70.043701 16.972372 -25.999615 -87.352463 -12.386485 -74.043800 5.335983 -0.466911 -40.827446 -2.031800 5.678400 -0.068100 70.145355 -9.364738 -29.099829 77.714104 15.808199 -63.215656 -3.995259 2.331984 -37.811398 -95.278099 22.677500 38.867802 137.279007 -7.551200 5.821800 -4.443700 -64.733200 -18.021900 -90.289101 -15.258800 -43.202999 121.151001 20.916901 30.273300 1.131700 13.910200 -10.519000 
